PathFileType	4	(X/Y/Z)	C:/Users/beibeiliu/ov580/test_trc/capture2\sequence.15_training_dense_left.trc
DataRate	CameraRate	NumFrames	NumMarkers	Units	OrigDataRate	OrigDataStartFrame	OrigNumFrames
120	120	18	19	mm	120	184	367
Frame#	Time	ThumbCMC			ThumbMCP			ThumbIP			ThumbTip			IndexMCP			IndexPIP			IndexTip			MiddleMCP			MiddlePIP			MiddleTip			RingMCP			RingPIP			RingTip			PinkyMCP			PinkyPIP			PinkyTip			BackHand1			BackHand2			BackHand3	
		X0	Y0	Z0	X1	Y1	Z1	X2	Y2	Z2	X3	Y3	Z3	X4	Y4	Z4	X5	Y5	Z5	X6	Y6	Z6	X7	Y7	Z7	X8	Y8	Z8	X9	Y9	Z9	X10	Y10	Z10	X11	Y11	Z11	X12	Y12	Z12	X13	Y13	Z13	X14	Y14	Z14	X15	Y15	Z15	X16	Y16	Z16	X17	Y17	Z17	X18	Y18	Z18	
183	1.525	-104.95	63.543	-30.2386	-92.1483	43.6092	-48.0464	-74.7654	34.6564	-64.1814	-63.2596	27.9059	-81.8396	-106.364	64.7586	-103.34	-116.538	34.5006	-97.4536	-120.174	43.0546	-67.0109	-127.516	70.1296	-104.288	-136.362	39.3412	-90.9753	-129.84	58.061	-60.5455	-144.993	70.3607	-101.969	-152.388	43.4915	-85.9058	-142.616	55.7458	-57.4775	-167.523	91.1781	-99.6187	-171.498	77.0737	-118.347	-180.227	71.1039	-138.162	-139.573	106.997	-55.3618	-147.487	108.845	-26.5256	-115.938	97.4359	-37.2036	
184	1.53333	-101.467	65.1558	-33.9646	-91.9743	46.8895	-50.5511	-77.197	39.4147	-68.9782	-64.6261	32.5628	-81.4392	-106.29	72.639	-103.06	-117.197	44.9094	-104.359	-124.018	49.8242	-71.3934	-129.292	73.537	-107.033	-134.046	45.956	-98.1111	-129.233	58.264	-62.8184	-147.19	76.427	-104.83	-150.396	50.6012	-91.1143	-142.593	61.1082	-57.7838	-166.845	99.152	-100.779	-171.831	89.1803	-119.169	-184.62	83.4989	-137.895	-140.099	112.769	-55.4536	-144.755	107.621	-24.2844	-113.596	100.192	-39.2586	
185	1.54167	-101.488	66.4958	-33.1999	-90.8477	51.3345	-53.2946	-73.8409	44.5015	-72.6155	-62.2087	38.602	-87.385	-105.205	77.4297	-104.999	-118.066	52.2631	-105.956	-122.968	55.4855	-73.1278	-123.303	81.8821	-107.141	-135.617	54.6228	-99.8024	-130.278	62.8079	-64.9791	-143.54	87.7499	-102.125	-148.141	57.9483	-97.2795	-141.329	63.3073	-62.8232	-161.515	107.743	-95.7262	-173.208	99.5993	-119.054	-180.268	96.6041	-138.181	-137.705	116.707	-53.0907	-141.103	110.044	-25.4254	-111.335	102.031	-37.9318	
186	1.55	-97.655	67.4088	-31.3839	-88.3354	53.4799	-52.7228	-70.4144	45.5926	-69.3566	-59.7719	41.3424	-82.7908	-102.992	84.7349	-100.374	-117.29	55.4006	-103.259	-120.985	58.2315	-73.6718	-124.366	91.0751	-103.141	-132.674	58.3987	-99.5139	-129.158	64.9542	-64.5903	-139.94	90.5204	-104.245	-149.21	62.8949	-96.0246	-142.163	68.1926	-61.471	-164.091	114.608	-96.7853	-167.049	109.448	-115.625	-174.334	108.528	-141.101	-141.157	119.829	-49.1	-140.911	113.569	-21.9803	-109.859	102.246	-32.4227	
187	1.55833	-101.159	69.8919	-30.9191	-89.4191	56.9234	-50.9238	-68.2867	49.0869	-68.3266	-53.5488	45.1402	-80.9013	-100.445	87.7399	-101.738	-111.778	61.8267	-107.845	-117.155	62.8842	-70.7169	-117.647	92.3063	-104.377	-132.361	64.4662	-101.084	-128.328	67.0508	-65.8765	-134.963	97.0325	-103.563	-143.225	69.146	-98.7009	-140.933	67.7304	-66.3635	-159.434	121.774	-94.4473	-165.632	119.151	-114.743	-171.671	119.247	-138.402	-132.491	120.225	-50.2708	-141.896	113.621	-20.7601	-110.898	106.641	-33.51	
188	1.56667	-97.1011	68.853	-29.8949	-82.9539	56.2924	-50.1476	-63.5844	51.2885	-67.1326	-49.1913	47.3442	-81.5193	-94.969	90.4223	-99.2383	-108.261	64.3873	-107.023	-116.193	64.9562	-71.5107	-116.96	99.2568	-99.7814	-127.208	67.706	-100.872	-121.966	70.5513	-61.4602	-134.133	102.99	-101.899	-143.743	73.1122	-98.4463	-136.891	71.5745	-64.798	-151.194	126.385	-94.5215	-159.484	125.685	-111.479	-166.543	127.716	-134.846	-132.154	126.034	-47.7079	-138.176	112.731	-15.1954	-106.531	106.681	-32.1129	
189	1.575	-95.149	67.3595	-29.5222	-83.6442	58.0168	-50.4468	-61.7274	49.2094	-63.7725	-43.9287	44.7019	-76.9375	-88.1671	90.9209	-94.8866	-104.956	64.4934	-105.076	-112.12	61.945	-71.9162	-110.145	99.0151	-98.8382	-125.72	70.1413	-100.319	-122.899	72.1549	-61.3858	-125.599	103.189	-100.994	-140.893	73.8626	-96.7519	-133.934	71.3214	-62.9753	-145.682	130.183	-92.0713	-148.772	128.308	-110.821	-154.728	133.572	-136.527	-125.164	122.644	-40.804	-134.833	112.825	-13.0011	-102.891	101.189	-28.4818	
190	1.58333	-90.8123	63.5241	-27.0949	-76.9163	53.5087	-48.384	-56.8064	47.9591	-63.1401	-40.8712	43.3525	-73.2644	-84.8044	90.8255	-91.882	-102.792	69.2236	-104.088	-108.857	63.8719	-69.2961	-104.973	98.1998	-97.5886	-119.1	67.8575	-97.0736	-120.536	71.0268	-60.9665	-124.563	107.49	-96.6293	-132.822	76.9296	-98.1363	-134.076	71.657	-63.0736	-137.693	129.018	-85.4164	-140.538	131.072	-110.304	-143.647	138.827	-135.954	-123.172	123.65	-44.1303	-131.825	112.824	-16.1738	-99.2389	97.9476	-23.3368	
191	1.59167	-90.3191	63.1339	-27.0196	-77.2165	50.1188	-42.7094	-57.8393	44.7036	-57.796	-40.1854	41.8758	-73.0782	-80.5609	87.7917	-91.0902	-98.1801	64.7502	-101.8	-107.721	63.5034	-69.4809	-99.6844	96.5948	-94.9179	-117.66	70.3169	-97.3855	-115.733	69.7859	-57.5301	-113.503	103.275	-96.7767	-130.396	76.7648	-95.7474	-130.195	71.7619	-62.7072	-128.643	128.118	-85.6237	-133.425	132.341	-106.547	-133.983	137.367	-133.829	-116.929	122.51	-39.9388	-126.552	111.211	-14.192	-99.1207	97.5877	-21.8324	
192	1.6	-86.6337	56.2456	-21.9656	-71.8583	46.0771	-41.0167	-53.9155	42.4143	-57.7455	-34.8536	33.8188	-69.7492	-74.7565	83.7932	-90.5483	-94.4511	65.8279	-100.085	-100.831	59.0815	-65.3897	-94.1681	95.4329	-90.5483	-113.632	69.508	-94.1564	-114.102	66.8779	-57.0497	-111.053	103.988	-94.3223	-125.206	75.937	-95.468	-121.369	69.4771	-61.4195	-126.538	129.27	-82.5543	-128.2	132.754	-103.998	-128.753	140.271	-128.988	-112.868	117.888	-35.4177	-122.189	104.571	-8.27969	-93.4298	93.2223	-19.7218	
193	1.60833	-84.4346	52.7574	-16.8694	-72.759	42.7853	-38.7817	-50.4695	36.7818	-55.6661	-33.6929	27.5059	-63.5386	-68.6964	78.4088	-87.7732	-87.54	58.4435	-95.0728	-99.1319	59.4072	-62.1036	-87.6144	88.2288	-90.983	-107.143	66.2803	-92.0846	-109.254	65.947	-54.3128	-103.562	101.871	-93.4454	-117.048	74.6369	-93.8815	-119.863	67.9414	-63.1707	-113.643	125.172	-78.8917	-117.348	131.536	-102.824	-116.29	138.369	-130.776	-105.636	117.42	-36.6627	-118.808	108.3	-7.13898	-86.6343	89.5783	-17.4141	
194	1.61667	-80.668	51.7446	-16.9211	-66.9579	36.7995	-33.3775	-50.468	28.9523	-47.5159	-30.8578	22.5015	-60.7539	-61.0021	73.2656	-81.3811	-82.1839	52.3657	-88.4336	-92.4413	52.4231	-59.8552	-76.0346	83.7847	-85.3446	-99.0999	60.4724	-86.7351	-103.802	63.1311	-52.1854	-90.6679	99.7689	-87.1504	-107.908	74.3905	-93.6784	-110.465	66.3658	-57.3698	-102.534	123.385	-77.1683	-100.515	126.059	-103.89	-98.103	131.117	-128.477	-97.2165	114.067	-31.3224	-111.697	103.748	-6.12734	-82.7829	87.5769	-11.8338	
195	1.625	-79.5985	47.3192	-11.1027	-67.3896	33.6034	-29.2801	-44.8208	22.887	-42.781	-31.275	12.3464	-51.9605	-50.8909	66.7019	-74.3813	-75.9922	47.7245	-85.0765	-86.233	51.1408	-55.0495	-67.278	78.8223	-83.5169	-90.7148	59.4074	-87.7133	-94.2402	59.9704	-47.2322	-81.8673	95.6608	-85.4962	-100.335	71.1557	-91.5926	-106.693	64.2738	-58.4791	-89.1128	119.148	-78.7542	-86.3193	120.635	-99.2028	-81.3945	121.27	-127.988	-85.9176	111.649	-30.2453	-101.2	103.593	-7.12	-73.1702	86.2311	-12.5835	
196	1.63333	-76.9377	48.3931	-9.75831	-66.5376	31.259	-25.1529	-46.4905	16.7189	-36.7761	-26.1978	4.58457	-47.4256	-45.7116	58.5058	-71.8619	-68.7831	43.4248	-83.4385	-83.1269	49.2713	-51.7992	-61.0448	74.2873	-79.2435	-87.7634	53.3935	-81.168	-87.6914	55.5037	-43.08	-74.141	87.211	-85.7426	-92.5019	61.0232	-85.0033	-98.7292	60.711	-53.1386	-80.6928	113.087	-78.5821	-77.9633	113.774	-102.48	-75.7171	112.648	-129.16	-80.3155	110.419	-31.286	-96.3483	106.601	-5.35406	-69.0382	81.2628	-7.38719	
197	1.64167	-70.3767	45.8502	-4.6579	-64.9905	29.233	-21.0022	-44.494	14.5178	-34.9579	-29.2816	-0.94882	-40.6738	-43.6186	48.7687	-71.6952	-70.0612	34.5154	-77.2433	-80.3971	41.9565	-48.9252	-59.4214	66.8653	-79.7251	-80.971	43.9518	-79.012	-84.2039	53.2864	-40.196	-70.4609	77.7957	-84.5379	-90.6552	55.3559	-81.6683	-97.372	61.0277	-49.3165	-75.57	105.396	-82.3294	-76.0373	101.309	-105.816	-73.3388	98.8125	-129.468	-71.5941	106.148	-34.2199	-91.1217	105.882	-6.17247	-62.78	83.0434	-11.4913	
198	1.65	-69.153	45.5995	0.332381	-63.3648	29.0087	-19.8826	-47.566	11.4528	-28.71	-30.3784	-3.58598	-38.5553	-44.5372	44.1394	-68.2901	-68.583	23.8407	-73.9576	-81.3859	39.2565	-45.9844	-62.0003	56.2111	-81.7923	-87.1708	39.7968	-73.3685	-83.1748	51.0484	-38.6914	-74.1584	71.8102	-84.4999	-97.6613	50.7531	-75.5229	-95.0561	56.7578	-44.5629	-79.0618	97.5987	-84.2337	-81.6617	89.4504	-107.017	-82.1393	82.9791	-130.101	-68.0263	104.559	-40.3252	-83.7131	105.772	-10.3832	-59.4362	82.8324	-9.95499	
199	1.65833	-67.5963	49.8137	-3.72151	-60.3622	28.7143	-19.3439	-43.6506	8.43278	-29.7775	-33.4672	-4.75173	-36.3566	-47.8003	39.4431	-71.5521	-71.1318	21.9262	-71.6121	-80.8768	34.8923	-41.4723	-61.6633	49.6678	-79.8981	-86.4435	34.666	-72.9398	-86.8523	50.3182	-39.4241	-75.9998	63.4274	-82.7063	-97.1872	44.9997	-71.3438	-93.9186	59.1066	-40.0063	-83.2872	88.9825	-91.6381	-86.38	78.1754	-105.595	-93.2832	68.4147	-128.582	-67.2707	98.9675	-41.5187	-82.2108	107.549	-12.9696	-53.3404	80.4484	-13.7693	
200	1.66667	-64.1823	49.4129	-2.27611	-58.4665	27.3163	-16.3592	-43.3532	6.88728	-25.1816	-31.9269	-6.03063	-35.668	-48.8224	34.9416	-70.8306	-70.2744	16.1784	-67.7197	-79.6275	32.417	-37.3278	-64.4403	50.5499	-78.1632	-87.0935	26.9689	-65.3256	-86.0363	49.6379	-37.6985	-76.3603	58.7117	-79.639	-99.2828	40.1063	-68.5906	-91.5803	55.8515	-37.4498	-85.9584	81.6945	-87.5954	-92.6509	67.1871	-105.151	-100.272	52.8213	-127.591	-72.5193	99.9397	-41.9453	-84.6608	108.285	-15.1026	-58.5018	85.688	-13.7663	
